<mxfile host="app.diagrams.net" agent="Mozilla/5.0 (X11; Linux x86_64) AppleWebKit/537.36 (KHTML, like Gecko) Chrome/138.0.0.0 Safari/537.36" version="28.0.7">
  <diagram name="Page-1" id="DpO9iMzfWjLum_n4VByZ">
    <mxGraphModel dx="1426" dy="865" grid="1" gridSize="10" guides="1" tooltips="1" connect="1" arrows="1" fold="1" page="1" pageScale="1" pageWidth="1169" pageHeight="1654" background="#ffffff" math="0" shadow="0">
      <root>
        <mxCell id="0" />
        <mxCell id="1" parent="0" />
        <mxCell id="LSAs5oSdMveP9yP4Xt4q-1" value="CItizen" style="shape=umlActor;verticalLabelPosition=bottom;verticalAlign=top;html=1;outlineConnect=0;rounded=1;" parent="1" vertex="1">
          <mxGeometry x="130" y="300" width="30" height="60" as="geometry" />
        </mxCell>
        <mxCell id="LSAs5oSdMveP9yP4Xt4q-4" value="Garbage Collector" style="shape=umlActor;verticalLabelPosition=bottom;verticalAlign=top;html=1;outlineConnect=0;rounded=1;" parent="1" vertex="1">
          <mxGeometry x="130" y="580" width="30" height="60" as="geometry" />
        </mxCell>
        <mxCell id="LSAs5oSdMveP9yP4Xt4q-8" value="Truck Driver" style="shape=umlActor;verticalLabelPosition=bottom;verticalAlign=top;html=1;outlineConnect=0;rounded=1;" parent="1" vertex="1">
          <mxGeometry x="130" y="820" width="30" height="60" as="geometry" />
        </mxCell>
        <mxCell id="LSAs5oSdMveP9yP4Xt4q-10" value="Municipal Official" style="shape=umlActor;verticalLabelPosition=bottom;verticalAlign=top;html=1;outlineConnect=0;rounded=1;" parent="1" vertex="1">
          <mxGeometry x="1000" y="580" width="30" height="60" as="geometry" />
        </mxCell>
        <mxCell id="LSAs5oSdMveP9yP4Xt4q-14" value="Log In" style="ellipse;whiteSpace=wrap;html=1;rounded=1;" parent="1" vertex="1">
          <mxGeometry x="440" y="80" width="90" height="60" as="geometry" />
        </mxCell>
        <mxCell id="LSAs5oSdMveP9yP4Xt4q-15" value="Log Out" style="ellipse;whiteSpace=wrap;html=1;rounded=1;" parent="1" vertex="1">
          <mxGeometry x="440" y="160" width="90" height="60" as="geometry" />
        </mxCell>
        <mxCell id="LSAs5oSdMveP9yP4Xt4q-16" value="Report Garbage Location" style="ellipse;whiteSpace=wrap;html=1;rounded=1;" parent="1" vertex="1">
          <mxGeometry x="440" y="400" width="90" height="60" as="geometry" />
        </mxCell>
        <mxCell id="LSAs5oSdMveP9yP4Xt4q-17" value="View Performance Metrics" style="ellipse;whiteSpace=wrap;html=1;rounded=1;" parent="1" vertex="1">
          <mxGeometry x="440" y="240" width="90" height="60" as="geometry" />
        </mxCell>
        <mxCell id="LSAs5oSdMveP9yP4Xt4q-19" value="Earn Rewards" style="ellipse;whiteSpace=wrap;html=1;rounded=1;" parent="1" vertex="1">
          <mxGeometry x="440" y="560" width="90" height="60" as="geometry" />
        </mxCell>
        <mxCell id="LSAs5oSdMveP9yP4Xt4q-20" value="Comfirm&amp;nbsp;&lt;span style=&quot;background-color: transparent; color: light-dark(rgb(0, 0, 0), rgb(255, 255, 255));&quot;&gt;Task&lt;/span&gt;&lt;div&gt;&lt;div&gt;Completion&lt;/div&gt;&lt;/div&gt;" style="ellipse;whiteSpace=wrap;html=1;rounded=1;" parent="1" vertex="1">
          <mxGeometry x="440" y="720" width="90" height="60" as="geometry" />
        </mxCell>
        <mxCell id="LSAs5oSdMveP9yP4Xt4q-21" value="Report Issue" style="ellipse;whiteSpace=wrap;html=1;rounded=1;" parent="1" vertex="1">
          <mxGeometry x="440" y="800" width="90" height="60" as="geometry" />
        </mxCell>
        <mxCell id="LSAs5oSdMveP9yP4Xt4q-22" value="View&lt;div&gt;Optimized Route&lt;/div&gt;" style="ellipse;whiteSpace=wrap;html=1;rounded=1;" parent="1" vertex="1">
          <mxGeometry x="440" y="880" width="90" height="60" as="geometry" />
        </mxCell>
        <mxCell id="LSAs5oSdMveP9yP4Xt4q-23" value="Log&amp;nbsp;&lt;span style=&quot;background-color: transparent; color: light-dark(rgb(0, 0, 0), rgb(255, 255, 255));&quot;&gt;Waste Pickup&lt;/span&gt;" style="ellipse;whiteSpace=wrap;html=1;rounded=1;" parent="1" vertex="1">
          <mxGeometry x="440" y="960" width="90" height="60" as="geometry" />
        </mxCell>
        <mxCell id="LSAs5oSdMveP9yP4Xt4q-24" value="Log Waste Disposal" style="ellipse;whiteSpace=wrap;html=1;rounded=1;" parent="1" vertex="1">
          <mxGeometry x="440" y="1040" width="90" height="60" as="geometry" />
        </mxCell>
        <mxCell id="LSAs5oSdMveP9yP4Xt4q-25" value="Report&lt;div&gt;Delay&lt;/div&gt;" style="ellipse;whiteSpace=wrap;html=1;rounded=1;" parent="1" vertex="1">
          <mxGeometry x="440" y="1120" width="90" height="60" as="geometry" />
        </mxCell>
        <mxCell id="LSAs5oSdMveP9yP4Xt4q-26" value="Assign Tasks" style="ellipse;whiteSpace=wrap;html=1;rounded=1;" parent="1" vertex="1">
          <mxGeometry x="680" y="640" width="90" height="60" as="geometry" />
        </mxCell>
        <mxCell id="LSAs5oSdMveP9yP4Xt4q-27" value="Monitor Task Progress" style="ellipse;whiteSpace=wrap;html=1;rounded=1;" parent="1" vertex="1">
          <mxGeometry x="680" y="720" width="90" height="60" as="geometry" />
        </mxCell>
        <mxCell id="LSAs5oSdMveP9yP4Xt4q-28" value="Validate&lt;div&gt;&lt;span style=&quot;background-color: transparent; color: light-dark(rgb(0, 0, 0), rgb(255, 255, 255));&quot;&gt;Citizen&lt;/span&gt;&lt;div&gt;&lt;span style=&quot;background-color: transparent; color: light-dark(rgb(0, 0, 0), rgb(255, 255, 255));&quot;&gt;Reports&lt;/span&gt;&lt;/div&gt;&lt;/div&gt;" style="ellipse;whiteSpace=wrap;html=1;rounded=1;" parent="1" vertex="1">
          <mxGeometry x="680" y="800" width="90" height="60" as="geometry" />
        </mxCell>
        <mxCell id="LSAs5oSdMveP9yP4Xt4q-29" value="Generate Performance Reports" style="ellipse;whiteSpace=wrap;html=1;rounded=1;" parent="1" vertex="1">
          <mxGeometry x="680" y="880" width="90" height="60" as="geometry" />
        </mxCell>
        <mxCell id="LSAs5oSdMveP9yP4Xt4q-30" value="View&lt;div&gt;City-Wide&lt;/div&gt;&lt;div&gt;Dashboard&lt;/div&gt;" style="ellipse;whiteSpace=wrap;html=1;rounded=1;" parent="1" vertex="1">
          <mxGeometry x="680" y="960" width="90" height="60" as="geometry" />
        </mxCell>
        <mxCell id="LSAs5oSdMveP9yP4Xt4q-31" value="Analyze Data" style="ellipse;whiteSpace=wrap;html=1;rounded=1;" parent="1" vertex="1">
          <mxGeometry x="680" y="1040" width="90" height="60" as="geometry" />
        </mxCell>
        <mxCell id="LSAs5oSdMveP9yP4Xt4q-32" value="Manage System Settings" style="ellipse;whiteSpace=wrap;html=1;rounded=1;" parent="1" vertex="1">
          <mxGeometry x="680" y="1120" width="90" height="60" as="geometry" />
        </mxCell>
        <mxCell id="LSAs5oSdMveP9yP4Xt4q-33" value="Generate&lt;div&gt;City-Wide&lt;/div&gt;&lt;div&gt;Reports&lt;/div&gt;" style="ellipse;whiteSpace=wrap;html=1;rounded=1;" parent="1" vertex="1">
          <mxGeometry x="680" y="1200" width="90" height="60" as="geometry" />
        </mxCell>
        <mxCell id="LSAs5oSdMveP9yP4Xt4q-34" value="Manage&lt;div&gt;User&lt;/div&gt;&lt;div&gt;Accounts&lt;/div&gt;" style="ellipse;whiteSpace=wrap;html=1;rounded=1;" parent="1" vertex="1">
          <mxGeometry x="680" y="1280" width="90" height="60" as="geometry" />
        </mxCell>
        <mxCell id="LSAs5oSdMveP9yP4Xt4q-35" value="View Leaderboard" style="ellipse;whiteSpace=wrap;html=1;rounded=1;" parent="1" vertex="1">
          <mxGeometry x="440" y="1200" width="90" height="60" as="geometry" />
        </mxCell>
        <mxCell id="LSAs5oSdMveP9yP4Xt4q-36" value="Redeem&lt;div&gt;Rewards&lt;/div&gt;" style="ellipse;whiteSpace=wrap;html=1;rounded=1;" parent="1" vertex="1">
          <mxGeometry x="440" y="1280" width="90" height="60" as="geometry" />
        </mxCell>
        <mxCell id="LSAs5oSdMveP9yP4Xt4q-37" value="View&lt;div&gt;Assigned&lt;/div&gt;&lt;div&gt;Tasks&lt;/div&gt;" style="ellipse;whiteSpace=wrap;html=1;rounded=1;" parent="1" vertex="1">
          <mxGeometry x="440" y="640" width="90" height="60" as="geometry" />
        </mxCell>
        <mxCell id="LSAs5oSdMveP9yP4Xt4q-38" value="Receive Notifications" style="ellipse;whiteSpace=wrap;html=1;rounded=1;" parent="1" vertex="1">
          <mxGeometry x="440" y="320" width="90" height="60" as="geometry" />
        </mxCell>
        <mxCell id="m6IIViM59i8U2YxwG6Qa-5" value="Admin" style="shape=umlActor;verticalLabelPosition=bottom;verticalAlign=top;html=1;outlineConnect=0;rounded=1;" parent="1" vertex="1">
          <mxGeometry x="1000" y="300" width="30" height="60" as="geometry" />
        </mxCell>
        <mxCell id="m6IIViM59i8U2YxwG6Qa-17" value="" style="endArrow=classic;html=1;rounded=0;entryX=0;entryY=0.5;entryDx=0;entryDy=0;exitX=1;exitY=0.3333333333333333;exitDx=0;exitDy=0;exitPerimeter=0;" parent="1" source="LSAs5oSdMveP9yP4Xt4q-1" target="LSAs5oSdMveP9yP4Xt4q-14" edge="1">
          <mxGeometry width="50" height="50" relative="1" as="geometry">
            <mxPoint x="200" y="290" as="sourcePoint" />
            <mxPoint x="210" y="270" as="targetPoint" />
          </mxGeometry>
        </mxCell>
        <mxCell id="m6IIViM59i8U2YxwG6Qa-27" value="" style="endArrow=classic;html=1;rounded=0;entryX=1;entryY=0.317;entryDx=0;entryDy=0;entryPerimeter=0;" parent="1" target="LSAs5oSdMveP9yP4Xt4q-15" edge="1">
          <mxGeometry width="50" height="50" relative="1" as="geometry">
            <mxPoint x="1000" y="320" as="sourcePoint" />
            <mxPoint x="1050" y="270" as="targetPoint" />
          </mxGeometry>
        </mxCell>
        <mxCell id="m6IIViM59i8U2YxwG6Qa-28" value="" style="endArrow=classic;html=1;rounded=0;entryX=0.078;entryY=0.833;entryDx=0;entryDy=0;entryPerimeter=0;" parent="1" target="LSAs5oSdMveP9yP4Xt4q-14" edge="1">
          <mxGeometry width="50" height="50" relative="1" as="geometry">
            <mxPoint x="160" y="840" as="sourcePoint" />
            <mxPoint x="210" y="790" as="targetPoint" />
          </mxGeometry>
        </mxCell>
        <mxCell id="m6IIViM59i8U2YxwG6Qa-29" value="" style="endArrow=classic;html=1;rounded=0;entryX=0;entryY=0.667;entryDx=0;entryDy=0;entryPerimeter=0;" parent="1" target="LSAs5oSdMveP9yP4Xt4q-14" edge="1">
          <mxGeometry width="50" height="50" relative="1" as="geometry">
            <mxPoint x="160" y="600" as="sourcePoint" />
            <mxPoint x="210" y="550" as="targetPoint" />
          </mxGeometry>
        </mxCell>
        <mxCell id="m6IIViM59i8U2YxwG6Qa-31" value="" style="endArrow=classic;html=1;rounded=0;entryX=1.011;entryY=0.383;entryDx=0;entryDy=0;entryPerimeter=0;" parent="1" target="LSAs5oSdMveP9yP4Xt4q-14" edge="1">
          <mxGeometry width="50" height="50" relative="1" as="geometry">
            <mxPoint x="1000" y="320" as="sourcePoint" />
            <mxPoint x="530" y="90" as="targetPoint" />
          </mxGeometry>
        </mxCell>
        <mxCell id="m6IIViM59i8U2YxwG6Qa-32" value="" style="endArrow=classic;html=1;rounded=0;entryX=1;entryY=0.5;entryDx=0;entryDy=0;" parent="1" target="LSAs5oSdMveP9yP4Xt4q-14" edge="1">
          <mxGeometry width="50" height="50" relative="1" as="geometry">
            <mxPoint x="1000" y="600" as="sourcePoint" />
            <mxPoint x="840" y="310" as="targetPoint" />
          </mxGeometry>
        </mxCell>
        <mxCell id="m6IIViM59i8U2YxwG6Qa-35" value="" style="endArrow=classic;html=1;rounded=0;entryX=1;entryY=0.5;entryDx=0;entryDy=0;" parent="1" target="LSAs5oSdMveP9yP4Xt4q-15" edge="1">
          <mxGeometry width="50" height="50" relative="1" as="geometry">
            <mxPoint x="1000" y="600" as="sourcePoint" />
            <mxPoint x="1050" y="550" as="targetPoint" />
          </mxGeometry>
        </mxCell>
        <mxCell id="m6IIViM59i8U2YxwG6Qa-36" value="" style="endArrow=classic;html=1;rounded=0;entryX=0.989;entryY=0.25;entryDx=0;entryDy=0;entryPerimeter=0;" parent="1" target="LSAs5oSdMveP9yP4Xt4q-17" edge="1">
          <mxGeometry width="50" height="50" relative="1" as="geometry">
            <mxPoint x="1000" y="320" as="sourcePoint" />
            <mxPoint x="530" y="249" as="targetPoint" />
          </mxGeometry>
        </mxCell>
        <mxCell id="m6IIViM59i8U2YxwG6Qa-38" value="" style="endArrow=classic;html=1;rounded=0;" parent="1" target="LSAs5oSdMveP9yP4Xt4q-38" edge="1">
          <mxGeometry width="50" height="50" relative="1" as="geometry">
            <mxPoint x="1000" y="320" as="sourcePoint" />
            <mxPoint x="1050" y="270" as="targetPoint" />
          </mxGeometry>
        </mxCell>
        <mxCell id="m6IIViM59i8U2YxwG6Qa-42" value="" style="endArrow=classic;html=1;rounded=0;entryX=0;entryY=0.5;entryDx=0;entryDy=0;" parent="1" target="LSAs5oSdMveP9yP4Xt4q-15" edge="1">
          <mxGeometry width="50" height="50" relative="1" as="geometry">
            <mxPoint x="160" y="320" as="sourcePoint" />
            <mxPoint x="210" y="270" as="targetPoint" />
          </mxGeometry>
        </mxCell>
        <mxCell id="m6IIViM59i8U2YxwG6Qa-44" value="" style="endArrow=classic;html=1;rounded=0;entryX=0;entryY=0.333;entryDx=0;entryDy=0;entryPerimeter=0;" parent="1" target="LSAs5oSdMveP9yP4Xt4q-38" edge="1">
          <mxGeometry width="50" height="50" relative="1" as="geometry">
            <mxPoint x="160" y="320" as="sourcePoint" />
            <mxPoint x="210" y="270" as="targetPoint" />
          </mxGeometry>
        </mxCell>
        <mxCell id="m6IIViM59i8U2YxwG6Qa-45" value="" style="endArrow=classic;html=1;rounded=0;entryX=0;entryY=0.667;entryDx=0;entryDy=0;entryPerimeter=0;" parent="1" target="LSAs5oSdMveP9yP4Xt4q-15" edge="1">
          <mxGeometry width="50" height="50" relative="1" as="geometry">
            <mxPoint x="160" y="600" as="sourcePoint" />
            <mxPoint x="210" y="550" as="targetPoint" />
          </mxGeometry>
        </mxCell>
        <mxCell id="m6IIViM59i8U2YxwG6Qa-46" value="" style="endArrow=classic;html=1;rounded=0;entryX=0.022;entryY=0.75;entryDx=0;entryDy=0;entryPerimeter=0;" parent="1" target="LSAs5oSdMveP9yP4Xt4q-17" edge="1">
          <mxGeometry width="50" height="50" relative="1" as="geometry">
            <mxPoint x="160" y="600" as="sourcePoint" />
            <mxPoint x="210" y="550" as="targetPoint" />
          </mxGeometry>
        </mxCell>
        <mxCell id="m6IIViM59i8U2YxwG6Qa-47" value="" style="endArrow=classic;html=1;rounded=0;entryX=0;entryY=0.5;entryDx=0;entryDy=0;" parent="1" target="LSAs5oSdMveP9yP4Xt4q-38" edge="1">
          <mxGeometry width="50" height="50" relative="1" as="geometry">
            <mxPoint x="160" y="600" as="sourcePoint" />
            <mxPoint x="210" y="550" as="targetPoint" />
          </mxGeometry>
        </mxCell>
        <mxCell id="m6IIViM59i8U2YxwG6Qa-48" value="" style="endArrow=classic;html=1;rounded=0;entryX=0.044;entryY=0.8;entryDx=0;entryDy=0;entryPerimeter=0;" parent="1" target="LSAs5oSdMveP9yP4Xt4q-15" edge="1">
          <mxGeometry width="50" height="50" relative="1" as="geometry">
            <mxPoint x="160" y="840" as="sourcePoint" />
            <mxPoint x="210" y="790" as="targetPoint" />
          </mxGeometry>
        </mxCell>
        <mxCell id="m6IIViM59i8U2YxwG6Qa-49" value="" style="endArrow=classic;html=1;rounded=0;entryX=0;entryY=1;entryDx=0;entryDy=0;" parent="1" target="LSAs5oSdMveP9yP4Xt4q-17" edge="1">
          <mxGeometry width="50" height="50" relative="1" as="geometry">
            <mxPoint x="160" y="840" as="sourcePoint" />
            <mxPoint x="210" y="790" as="targetPoint" />
          </mxGeometry>
        </mxCell>
        <mxCell id="m6IIViM59i8U2YxwG6Qa-50" value="" style="endArrow=classic;html=1;rounded=0;entryX=0.022;entryY=0.75;entryDx=0;entryDy=0;entryPerimeter=0;" parent="1" target="LSAs5oSdMveP9yP4Xt4q-38" edge="1">
          <mxGeometry width="50" height="50" relative="1" as="geometry">
            <mxPoint x="160" y="840" as="sourcePoint" />
            <mxPoint x="210" y="790" as="targetPoint" />
          </mxGeometry>
        </mxCell>
        <mxCell id="m6IIViM59i8U2YxwG6Qa-51" value="" style="endArrow=classic;html=1;rounded=0;entryX=0;entryY=0.5;entryDx=0;entryDy=0;" parent="1" target="LSAs5oSdMveP9yP4Xt4q-16" edge="1">
          <mxGeometry width="50" height="50" relative="1" as="geometry">
            <mxPoint x="160" y="320" as="sourcePoint" />
            <mxPoint x="210" y="270" as="targetPoint" />
          </mxGeometry>
        </mxCell>
        <mxCell id="LSAs5oSdMveP9yP4Xt4q-9" value="Zone Manager" style="shape=umlActor;verticalLabelPosition=bottom;verticalAlign=top;html=1;outlineConnect=0;rounded=1;movable=1;resizable=1;rotatable=1;deletable=1;editable=1;locked=0;connectable=1;" parent="1" vertex="1">
          <mxGeometry x="1000" y="820" width="30" height="60" as="geometry" />
        </mxCell>
        <mxCell id="m6IIViM59i8U2YxwG6Qa-33" value="" style="endArrow=classic;html=1;rounded=0;entryX=0.967;entryY=0.7;entryDx=0;entryDy=0;entryPerimeter=0;movable=0;resizable=0;rotatable=0;deletable=0;editable=0;locked=1;connectable=0;" parent="1" target="LSAs5oSdMveP9yP4Xt4q-14" edge="1">
          <mxGeometry width="50" height="50" relative="1" as="geometry">
            <mxPoint x="1000" y="840" as="sourcePoint" />
            <mxPoint x="1050" y="790" as="targetPoint" />
          </mxGeometry>
        </mxCell>
        <mxCell id="m6IIViM59i8U2YxwG6Qa-37" value="" style="endArrow=classic;html=1;rounded=0;entryX=0.933;entryY=0.767;entryDx=0;entryDy=0;entryPerimeter=0;movable=0;resizable=0;rotatable=0;deletable=0;editable=0;locked=1;connectable=0;" parent="1" target="LSAs5oSdMveP9yP4Xt4q-15" edge="1">
          <mxGeometry width="50" height="50" relative="1" as="geometry">
            <mxPoint x="1000" y="840" as="sourcePoint" />
            <mxPoint x="1050" y="790" as="targetPoint" />
          </mxGeometry>
        </mxCell>
        <mxCell id="m6IIViM59i8U2YxwG6Qa-41" value="" style="endArrow=classic;html=1;rounded=0;entryX=0.944;entryY=0.817;entryDx=0;entryDy=0;entryPerimeter=0;movable=0;resizable=0;rotatable=0;deletable=0;editable=0;locked=1;connectable=0;" parent="1" target="LSAs5oSdMveP9yP4Xt4q-38" edge="1">
          <mxGeometry width="50" height="50" relative="1" as="geometry">
            <mxPoint x="1000" y="840" as="sourcePoint" />
            <mxPoint x="1050" y="790" as="targetPoint" />
          </mxGeometry>
        </mxCell>
        <mxCell id="m6IIViM59i8U2YxwG6Qa-59" value="View Report&lt;div&gt;Status&lt;/div&gt;" style="ellipse;whiteSpace=wrap;html=1;rounded=1;" parent="1" vertex="1">
          <mxGeometry x="440" y="480" width="90" height="60" as="geometry" />
        </mxCell>
        <mxCell id="m6IIViM59i8U2YxwG6Qa-60" value="" style="endArrow=classic;html=1;rounded=0;entryX=0;entryY=0.5;entryDx=0;entryDy=0;" parent="1" target="m6IIViM59i8U2YxwG6Qa-59" edge="1">
          <mxGeometry width="50" height="50" relative="1" as="geometry">
            <mxPoint x="160" y="320" as="sourcePoint" />
            <mxPoint x="210" y="270" as="targetPoint" />
          </mxGeometry>
        </mxCell>
        <mxCell id="m6IIViM59i8U2YxwG6Qa-61" value="" style="endArrow=classic;html=1;rounded=0;entryX=0;entryY=0.333;entryDx=0;entryDy=0;entryPerimeter=0;" parent="1" target="LSAs5oSdMveP9yP4Xt4q-19" edge="1">
          <mxGeometry width="50" height="50" relative="1" as="geometry">
            <mxPoint x="160" y="320" as="sourcePoint" />
            <mxPoint x="210" y="270" as="targetPoint" />
          </mxGeometry>
        </mxCell>
        <mxCell id="m6IIViM59i8U2YxwG6Qa-62" value="" style="endArrow=classic;html=1;rounded=0;entryX=0;entryY=0.5;entryDx=0;entryDy=0;" parent="1" target="LSAs5oSdMveP9yP4Xt4q-19" edge="1">
          <mxGeometry width="50" height="50" relative="1" as="geometry">
            <mxPoint x="160" y="600" as="sourcePoint" />
            <mxPoint x="210" y="550" as="targetPoint" />
          </mxGeometry>
        </mxCell>
        <mxCell id="m6IIViM59i8U2YxwG6Qa-63" value="" style="endArrow=classic;html=1;rounded=0;entryX=0;entryY=0.667;entryDx=0;entryDy=0;entryPerimeter=0;" parent="1" target="LSAs5oSdMveP9yP4Xt4q-19" edge="1">
          <mxGeometry width="50" height="50" relative="1" as="geometry">
            <mxPoint x="160" y="840" as="sourcePoint" />
            <mxPoint x="210" y="790" as="targetPoint" />
          </mxGeometry>
        </mxCell>
        <mxCell id="m6IIViM59i8U2YxwG6Qa-64" value="" style="endArrow=classic;html=1;rounded=0;entryX=-0.033;entryY=0.4;entryDx=0;entryDy=0;entryPerimeter=0;" parent="1" target="LSAs5oSdMveP9yP4Xt4q-37" edge="1">
          <mxGeometry width="50" height="50" relative="1" as="geometry">
            <mxPoint x="160" y="600" as="sourcePoint" />
            <mxPoint x="210" y="550" as="targetPoint" />
          </mxGeometry>
        </mxCell>
        <mxCell id="m6IIViM59i8U2YxwG6Qa-65" value="" style="endArrow=classic;html=1;rounded=0;entryX=-0.033;entryY=0.617;entryDx=0;entryDy=0;entryPerimeter=0;" parent="1" target="LSAs5oSdMveP9yP4Xt4q-37" edge="1">
          <mxGeometry width="50" height="50" relative="1" as="geometry">
            <mxPoint x="160" y="840" as="sourcePoint" />
            <mxPoint x="210" y="790" as="targetPoint" />
          </mxGeometry>
        </mxCell>
        <mxCell id="m6IIViM59i8U2YxwG6Qa-66" value="" style="endArrow=classic;html=1;rounded=0;" parent="1" edge="1">
          <mxGeometry width="50" height="50" relative="1" as="geometry">
            <mxPoint x="160" y="600" as="sourcePoint" />
            <mxPoint x="440" y="740" as="targetPoint" />
          </mxGeometry>
        </mxCell>
        <mxCell id="m6IIViM59i8U2YxwG6Qa-67" value="" style="endArrow=classic;html=1;rounded=0;entryX=0;entryY=0.5;entryDx=0;entryDy=0;" parent="1" target="LSAs5oSdMveP9yP4Xt4q-20" edge="1">
          <mxGeometry width="50" height="50" relative="1" as="geometry">
            <mxPoint x="160" y="840" as="sourcePoint" />
            <mxPoint x="210" y="790" as="targetPoint" />
          </mxGeometry>
        </mxCell>
        <mxCell id="m6IIViM59i8U2YxwG6Qa-68" value="" style="endArrow=classic;html=1;rounded=0;entryX=0;entryY=0;entryDx=0;entryDy=0;" parent="1" target="LSAs5oSdMveP9yP4Xt4q-21" edge="1">
          <mxGeometry width="50" height="50" relative="1" as="geometry">
            <mxPoint x="160" y="600" as="sourcePoint" />
            <mxPoint x="210" y="550" as="targetPoint" />
          </mxGeometry>
        </mxCell>
        <mxCell id="m6IIViM59i8U2YxwG6Qa-69" value="" style="endArrow=classic;html=1;rounded=0;entryX=0;entryY=0.5;entryDx=0;entryDy=0;" parent="1" target="LSAs5oSdMveP9yP4Xt4q-21" edge="1">
          <mxGeometry width="50" height="50" relative="1" as="geometry">
            <mxPoint x="160" y="840" as="sourcePoint" />
            <mxPoint x="210" y="790" as="targetPoint" />
          </mxGeometry>
        </mxCell>
        <mxCell id="m6IIViM59i8U2YxwG6Qa-70" value="" style="endArrow=classic;html=1;rounded=0;entryX=0;entryY=0.5;entryDx=0;entryDy=0;" parent="1" target="LSAs5oSdMveP9yP4Xt4q-22" edge="1">
          <mxGeometry width="50" height="50" relative="1" as="geometry">
            <mxPoint x="160" y="840" as="sourcePoint" />
            <mxPoint x="210" y="790" as="targetPoint" />
          </mxGeometry>
        </mxCell>
        <mxCell id="m6IIViM59i8U2YxwG6Qa-71" value="" style="endArrow=classic;html=1;rounded=0;entryX=0;entryY=0.5;entryDx=0;entryDy=0;" parent="1" target="LSAs5oSdMveP9yP4Xt4q-23" edge="1">
          <mxGeometry width="50" height="50" relative="1" as="geometry">
            <mxPoint x="160" y="840" as="sourcePoint" />
            <mxPoint x="210" y="790" as="targetPoint" />
          </mxGeometry>
        </mxCell>
        <mxCell id="m6IIViM59i8U2YxwG6Qa-72" value="" style="endArrow=classic;html=1;rounded=0;entryX=0;entryY=0.5;entryDx=0;entryDy=0;" parent="1" target="LSAs5oSdMveP9yP4Xt4q-24" edge="1">
          <mxGeometry width="50" height="50" relative="1" as="geometry">
            <mxPoint x="160" y="840" as="sourcePoint" />
            <mxPoint x="210" y="790" as="targetPoint" />
          </mxGeometry>
        </mxCell>
        <mxCell id="m6IIViM59i8U2YxwG6Qa-73" value="" style="endArrow=classic;html=1;rounded=0;entryX=0;entryY=0.5;entryDx=0;entryDy=0;" parent="1" target="LSAs5oSdMveP9yP4Xt4q-25" edge="1">
          <mxGeometry width="50" height="50" relative="1" as="geometry">
            <mxPoint x="160" y="840" as="sourcePoint" />
            <mxPoint x="210" y="790" as="targetPoint" />
          </mxGeometry>
        </mxCell>
        <mxCell id="m6IIViM59i8U2YxwG6Qa-74" value="" style="endArrow=classic;html=1;rounded=0;entryX=0;entryY=0;entryDx=0;entryDy=0;" parent="1" target="LSAs5oSdMveP9yP4Xt4q-35" edge="1">
          <mxGeometry width="50" height="50" relative="1" as="geometry">
            <mxPoint x="160" y="320" as="sourcePoint" />
            <mxPoint x="210" y="270" as="targetPoint" />
          </mxGeometry>
        </mxCell>
        <mxCell id="m6IIViM59i8U2YxwG6Qa-75" value="" style="endArrow=classic;html=1;rounded=0;startSize=6;jumpSize=6;entryX=0.022;entryY=0.267;entryDx=0;entryDy=0;entryPerimeter=0;" parent="1" target="LSAs5oSdMveP9yP4Xt4q-35" edge="1">
          <mxGeometry width="50" height="50" relative="1" as="geometry">
            <mxPoint x="160" y="600" as="sourcePoint" />
            <mxPoint x="450" y="1210" as="targetPoint" />
          </mxGeometry>
        </mxCell>
        <mxCell id="m6IIViM59i8U2YxwG6Qa-76" value="" style="endArrow=classic;html=1;rounded=0;entryX=0;entryY=0.5;entryDx=0;entryDy=0;" parent="1" target="LSAs5oSdMveP9yP4Xt4q-35" edge="1">
          <mxGeometry width="50" height="50" relative="1" as="geometry">
            <mxPoint x="160" y="840" as="sourcePoint" />
            <mxPoint x="210" y="790" as="targetPoint" />
          </mxGeometry>
        </mxCell>
        <mxCell id="m6IIViM59i8U2YxwG6Qa-77" value="" style="endArrow=classic;html=1;rounded=0;entryX=0;entryY=0.5;entryDx=0;entryDy=0;" parent="1" target="LSAs5oSdMveP9yP4Xt4q-36" edge="1">
          <mxGeometry width="50" height="50" relative="1" as="geometry">
            <mxPoint x="160" y="840" as="sourcePoint" />
            <mxPoint x="150" y="1310" as="targetPoint" />
          </mxGeometry>
        </mxCell>
        <mxCell id="m6IIViM59i8U2YxwG6Qa-78" value="" style="endArrow=classic;html=1;rounded=0;entryX=0;entryY=0;entryDx=0;entryDy=0;" parent="1" target="LSAs5oSdMveP9yP4Xt4q-36" edge="1">
          <mxGeometry width="50" height="50" relative="1" as="geometry">
            <mxPoint x="160" y="320" as="sourcePoint" />
            <mxPoint x="210" y="270" as="targetPoint" />
          </mxGeometry>
        </mxCell>
        <mxCell id="m6IIViM59i8U2YxwG6Qa-79" value="" style="endArrow=classic;html=1;rounded=0;entryX=0;entryY=0.333;entryDx=0;entryDy=0;entryPerimeter=0;" parent="1" target="LSAs5oSdMveP9yP4Xt4q-36" edge="1">
          <mxGeometry width="50" height="50" relative="1" as="geometry">
            <mxPoint x="160" y="600" as="sourcePoint" />
            <mxPoint x="210" y="550" as="targetPoint" />
          </mxGeometry>
        </mxCell>
        <mxCell id="m6IIViM59i8U2YxwG6Qa-80" value="" style="endArrow=classic;html=1;rounded=0;entryX=1;entryY=0.5;entryDx=0;entryDy=0;" parent="1" target="LSAs5oSdMveP9yP4Xt4q-26" edge="1">
          <mxGeometry width="50" height="50" relative="1" as="geometry">
            <mxPoint x="1000" y="840" as="sourcePoint" />
            <mxPoint x="1050" y="790" as="targetPoint" />
          </mxGeometry>
        </mxCell>
        <mxCell id="m6IIViM59i8U2YxwG6Qa-81" value="" style="endArrow=classic;html=1;rounded=0;entryX=1;entryY=0.5;entryDx=0;entryDy=0;" parent="1" target="LSAs5oSdMveP9yP4Xt4q-27" edge="1">
          <mxGeometry width="50" height="50" relative="1" as="geometry">
            <mxPoint x="1000" y="840" as="sourcePoint" />
            <mxPoint x="1050" y="790" as="targetPoint" />
          </mxGeometry>
        </mxCell>
        <mxCell id="m6IIViM59i8U2YxwG6Qa-82" value="" style="endArrow=classic;html=1;rounded=0;entryX=1;entryY=0.5;entryDx=0;entryDy=0;" parent="1" target="LSAs5oSdMveP9yP4Xt4q-28" edge="1">
          <mxGeometry width="50" height="50" relative="1" as="geometry">
            <mxPoint x="1000" y="840" as="sourcePoint" />
            <mxPoint x="1050" y="790" as="targetPoint" />
          </mxGeometry>
        </mxCell>
        <mxCell id="m6IIViM59i8U2YxwG6Qa-83" value="" style="endArrow=classic;html=1;rounded=0;entryX=1;entryY=0;entryDx=0;entryDy=0;" parent="1" target="LSAs5oSdMveP9yP4Xt4q-29" edge="1">
          <mxGeometry width="50" height="50" relative="1" as="geometry">
            <mxPoint x="1000" y="600" as="sourcePoint" />
            <mxPoint x="1050" y="550" as="targetPoint" />
          </mxGeometry>
        </mxCell>
        <mxCell id="m6IIViM59i8U2YxwG6Qa-84" value="" style="endArrow=classic;html=1;rounded=0;entryX=1;entryY=0.5;entryDx=0;entryDy=0;" parent="1" target="LSAs5oSdMveP9yP4Xt4q-29" edge="1">
          <mxGeometry width="50" height="50" relative="1" as="geometry">
            <mxPoint x="1000" y="840" as="sourcePoint" />
            <mxPoint x="1050" y="790" as="targetPoint" />
          </mxGeometry>
        </mxCell>
        <mxCell id="m6IIViM59i8U2YxwG6Qa-85" value="" style="endArrow=classic;html=1;rounded=0;entryX=1;entryY=0;entryDx=0;entryDy=0;" parent="1" target="LSAs5oSdMveP9yP4Xt4q-30" edge="1">
          <mxGeometry width="50" height="50" relative="1" as="geometry">
            <mxPoint x="1000" y="600" as="sourcePoint" />
            <mxPoint x="1050" y="550" as="targetPoint" />
          </mxGeometry>
        </mxCell>
        <mxCell id="m6IIViM59i8U2YxwG6Qa-86" value="" style="endArrow=classic;html=1;rounded=0;entryX=1;entryY=0;entryDx=0;entryDy=0;" parent="1" target="LSAs5oSdMveP9yP4Xt4q-31" edge="1">
          <mxGeometry width="50" height="50" relative="1" as="geometry">
            <mxPoint x="1000" y="600" as="sourcePoint" />
            <mxPoint x="1050" y="550" as="targetPoint" />
          </mxGeometry>
        </mxCell>
        <mxCell id="m6IIViM59i8U2YxwG6Qa-87" value="" style="endArrow=classic;html=1;rounded=0;entryX=1;entryY=0;entryDx=0;entryDy=0;" parent="1" target="LSAs5oSdMveP9yP4Xt4q-32" edge="1">
          <mxGeometry width="50" height="50" relative="1" as="geometry">
            <mxPoint x="1000" y="320" as="sourcePoint" />
            <mxPoint x="1050" y="270" as="targetPoint" />
          </mxGeometry>
        </mxCell>
        <mxCell id="m6IIViM59i8U2YxwG6Qa-88" value="" style="endArrow=classic;html=1;rounded=0;entryX=1;entryY=0;entryDx=0;entryDy=0;" parent="1" target="LSAs5oSdMveP9yP4Xt4q-33" edge="1">
          <mxGeometry width="50" height="50" relative="1" as="geometry">
            <mxPoint x="1000" y="600" as="sourcePoint" />
            <mxPoint x="1050" y="550" as="targetPoint" />
          </mxGeometry>
        </mxCell>
        <mxCell id="m6IIViM59i8U2YxwG6Qa-89" value="" style="endArrow=classic;html=1;rounded=0;entryX=0.933;entryY=0.167;entryDx=0;entryDy=0;entryPerimeter=0;" parent="1" target="LSAs5oSdMveP9yP4Xt4q-34" edge="1">
          <mxGeometry width="50" height="50" relative="1" as="geometry">
            <mxPoint x="1000" y="320" as="sourcePoint" />
            <mxPoint x="1050" y="270" as="targetPoint" />
          </mxGeometry>
        </mxCell>
      </root>
    </mxGraphModel>
  </diagram>
</mxfile>
